<?xml version="1.0" encoding="utf-8"?>
<!-- Generator: Adobe Illustrator 28.3.0, SVG Export Plug-In . SVG Version: 6.00 Build 0)  -->
<svg version="1.1" id="Layer_1" xmlns="http://www.w3.org/2000/svg" xmlns:xlink="http://www.w3.org/1999/xlink" x="0px" y="0px"
	 viewBox="0 0 280 280" style="enable-background:new 0 0 280 280;" xml:space="preserve">
<style type="text/css">
	.st0{fill:#FFFFFF;}
</style>
<g transform="translate(0.000000,271.000000) scale(0.100000,-0.100000)">
	<path class="st0" d="M1097.4,2651.5c-179.2-26.9-470.7-70.2-647-95.6c-176.3-26.9-329.9-53.8-342.7-61.2
		c-12.8-7.5-41.2-32.9-61.1-59.8c-34.1-43.3-37-55.3-37-197.2c0-83.7,5.7-292.8,14.2-466.1c7.1-171.8,19.9-507.9,28.4-745.4
		c17.1-496,17.1-494.5,142.2-561.7C382.1,364.4,1272.3-70.3,1307.8-79.3c31.3-7.5,172.1,43.3,668.3,245
		c345.5,138.9,644.2,265.9,664.1,280.9c73.9,56.8,81.1,95.6,105.2,622.9c58.3,1244.4,58.3,1254.9,28.4,1307.1
		c-45.5,82.2-85.3,101.6-268.8,133c-93.8,16.4-359.8,64.2-590.1,106.1s-435.1,77.7-455,80.7
		C1440.1,2699.3,1278,2679.9,1097.4,2651.5z M1744.4,2436.4c0-4.5-110.9-26.9-244.6-49.3c-135.1-22.4-376.8-61.2-536.1-88.1
		l-288.7-47.8L511.5,2293c-89.6,23.9-159.3,44.8-156.4,47.8s170.6,29.9,374,58.3c201.9,29.9,445.1,65.7,538.9,79.2
		c164.9,25.4,174.9,25.4,322.8-3C1676.1,2458.8,1744.4,2442.4,1744.4,2436.4z M2297.5,2345.3c103.8-17.9,136.5-26.9,128-34.4
		c-2.8-4.5-164.9-37.3-361.2-76.2c-194.8-37.3-438-85.2-540.3-106.1l-184.9-35.9l-137.9,32.9c-76.8,17.9-139.4,35.9-139.4,41.8
		c0,10.5,1008.2,189.7,1086.4,192.7C2179.5,2361.7,2246.3,2354.2,2297.5,2345.3z M394.9,2219.8c79.6-19.4,146.5-38.8,147.9-40.3
		c2.8-3,8.5-140.4,14.2-306.2c10-283.8,12.8-303.3,38.4-303.3c14.2,0,29.9-10.5,34.1-22.4c5.7-14.9,19.9-19.4,41.2-13.4
		c19.9,4.5,34.1,0,39.8-13.4c4.3-14.9,19.9-19.4,44.1-14.9c24.2,6,37,1.5,37-10.5s12.8-16.4,35.5-12c19.9,4.5,39.8,1.5,44.1-4.5
		c27-46.3,31.3,19.4,24.2,300.3c-8.5,288.3-7.1,313.7,15.6,313.7c12.8,0,103.8-20.9,201.9-46.3l177.7-47.8l-4.3-915.8
		c-2.8-503.4-8.5-920.2-14.2-926.2c-5.7-6-189.1,79.2-405.3,188.2C649.5,454,423.4,566.1,362.2,594.4l-108.1,52.3l-8.5,152.4
		c-4.3,82.2-15.6,373.5-22.8,643.9c-7.1,271.9-18.5,564.7-22.8,654.3C190.2,2285.5,174.5,2276.5,394.9,2219.8z M2607.5,2134.6
		c-5.7-52.3-22.8-413.8-39.8-803.7c-19.9-478-35.5-715.6-45.5-726c-10-9-173.5-79.2-365.4-155.4S1713.1,271.8,1597.9,224
		c-160.7-65.7-213.3-80.7-219-65.7c-10,28.4,1.4,1825.5,11.4,1836c7.1,7.5,237.5,53.8,965.5,194.2c98.1,19.4,196.2,35.9,219,37.3
		l41.2,1.5L2607.5,2134.6z"/>
</g>
</svg>
