<?xml version="1.0" encoding="utf-8"?>
<!-- Svg Vector Icons : http://www.onlinewebfonts.com/icon -->
<!DOCTYPE svg PUBLIC "-//W3C//DTD SVG 1.1//EN" "http://www.w3.org/Graphics/SVG/1.1/DTD/svg11.dtd">
<svg version="1.1" xmlns="http://www.w3.org/2000/svg" xmlns:xlink="http://www.w3.org/1999/xlink" x="0px" y="0px" viewBox="0 0 256 256" enable-background="new 0 0 256 256" xml:space="preserve">
<metadata> Svg Vector Icons : http://www.onlinewebfonts.com/icon </metadata>
<g><g><path fill="#000000" d="M53.1,120.7c-14.6,0-26.5-11.9-26.5-26.5s11.9-26.5,26.5-26.5s26.5,11.9,26.5,26.5S67.7,120.7,53.1,120.7L53.1,120.7z M53.1,75.9c-10,0-18,8.1-18,18c0,10,8.1,18,18,18s18-8.1,18-18C71.1,84,63.1,75.9,53.1,75.9z"/><path fill="#000000" d="M55.9,176.7c0-2.3,0.2-4.9,0.4-7.2c-1.1,0-1.9,0-3,0c-20.8,0-34.8-8.5-34.8-14.2c0-19.1,15.5-34.8,34.8-34.8c8.7,0,16.8,3.4,22.9,8.7c2.1-1.9,4.2-3.8,6.6-5.5c-7.6-7.2-18-11.7-29.5-11.7C29.5,112,10,131.3,10,155.3c0,12.5,19.3,22.7,43.3,22.7c0.8,0,1.7,0,2.8,0C55.9,177.6,55.9,177.1,55.9,176.7L55.9,176.7z"/><path fill="#000000" d="M201.6,120.5c-15.1,0-27.2-12.1-27.2-27.2c0-15.1,12.1-27.2,27.2-27.2c15.1,0,27.2,12.1,27.2,27.2C228.8,108.4,216.7,120.5,201.6,120.5z M201.6,74.6c-10.4,0-18.7,8.5-18.7,18.7c0,10.4,8.5,18.7,18.7,18.7c10.4,0,18.7-8.5,18.7-18.7C220.3,82.9,212,74.6,201.6,74.6L201.6,74.6z"/><path fill="#000000" d="M201.6,112c-11.7,0-22.5,4.7-30.3,12.1c2.3,1.7,4.5,3.6,6.6,5.5c6.4-5.7,14.6-9.1,24-9.1c19.7,0,35.7,16.1,35.7,35.7c0,5.1-15.1,14.6-35.7,14.6c-1.5,0-2.8,0-4.2-0.2c0.2,1.9,0.2,4,0.2,5.9c0,0.8,0,1.7,0,2.6c1.3,0,2.6,0.2,4,0.2c23.1,0,44.1-11,44.1-23.1C246,131.7,226.1,112,201.6,112L201.6,112z"/><path fill="#000000" d="M126.7,122.6c-21.2,0-38.6-17.2-38.6-38.6s17.2-38.6,38.6-38.6s38.6,17.2,38.6,38.6S147.9,122.6,126.7,122.6L126.7,122.6z M126.7,54c-16.5,0-30.1,13.6-30.1,30.1s13.6,30.1,30.1,30.1s30.1-13.6,30.1-30.1C156.8,67.7,143.3,54,126.7,54z"/><path fill="#000000" d="M126.7,210.7c-34.8,0-64.1-14.9-64.1-32.5c0-35.2,28.7-64.1,64.1-64.1c35.2,0,64.1,28.7,64.1,64.1C190.8,194.9,159.6,210.7,126.7,210.7z M126.7,122.6c-30.6,0-55.6,24.8-55.6,55.6c0,11,24.2,24,55.6,24c31.6,0,55.6-14.6,55.6-24C182.3,147.6,157.3,122.6,126.7,122.6L126.7,122.6z"/></g></g>
</svg>